<?xml version="1.0" standalone="no"?>
<!DOCTYPE svg PUBLIC "-//W3C//DTD SVG 1.1//EN" "http://www.w3.org/Graphics/SVG/1.1/DTD/svg11.dtd" >
<svg xmlns="http://www.w3.org/2000/svg" xmlns:xlink="http://www.w3.org/1999/xlink" version="1.1">
<metadata>
Created by FontForge 20141024 at Tue May 19 15:08:40 2015
 By System Administrator
Copyright (c) 1990 Neufville SL, Copyright (c) 1990-2000 ParaType, Inc. All Rights Reserved. Futura is a registered trade mark of Neufville SL.
</metadata>
<defs>
<font id="FuturaBookC" horiz-adv-x="1163" >
  <font-face 
    font-family="FuturaBookC"
    font-weight="400"
    font-stretch="normal"
    units-per-em="2048"
    panose-1="4 0 5 0 0 0 0 0 0 0"
    ascent="1536"
    descent="-512"
    x-height="850"
    cap-height="1366"
    bbox="-94 -512 2103 1806"
    underline-thickness="102"
    underline-position="-102"
    unicode-range="U+0020-E000"
  />
<missing-glyph horiz-adv-x="477" 
 />
    <glyph glyph-name=".notdef" horiz-adv-x="477" 
 />
    <glyph glyph-name=".null" horiz-adv-x="0" 
 />
    <glyph glyph-name="nonmarkingreturn" horiz-adv-x="681" 
 />
    <glyph glyph-name="space" unicode=" " horiz-adv-x="477" 
 />
    <glyph glyph-name="exclam" unicode="!" horiz-adv-x="573" 
d="M360 276h-147v1090h147v-1090zM184 82q0 41 31 71.5t72 30.5t71.5 -30.5t30.5 -71.5t-30.5 -71.5t-71.5 -30.5t-72 30.5t-31 71.5z" />
    <glyph glyph-name="quotedbl" unicode="&#x22;" horiz-adv-x="675" 
d="M274 1366l-26 -549h-111l-26 549h163zM565 1366l-26 -549h-111l-27 549h164z" />
    <glyph glyph-name="numbersign" unicode="#" horiz-adv-x="1228" 
d="M807 0h-150l66 424h-279l-65 -424h-150l66 424h-225l20 135h225l41 272h-225l21 136h225l61 399h150l-62 -399h279l61 399h150l-62 -399h226l-21 -136h-225l-41 -272h225l-20 -135h-226zM743 559l41 272h-278l-41 -272h278z" />
    <glyph glyph-name="dollar" unicode="$" 
d="M956 1176l-120 -80q-31 63 -78 102q-39 35 -88 43v-455q162 -63 239 -143q96 -98 97 -248q0 -147 -90.5 -267t-245.5 -144v-191h-123v182q-154 6 -262 111q-94 94 -127 242l147 41q14 -106 82 -174q70 -72 160 -76v561q-147 59 -225 133q-94 88 -95 223q0 143 92.5 239.5
t227.5 108.5v179h123v-179q86 -8 155 -57q82 -57 131 -151zM670 623v-496q82 23 131 98.5t49 163.5q0 96 -66 162q-42 43 -114 72zM547 842v399q-80 -12 -124 -69.5t-44 -133.5q0 -72 51 -123q45 -44 117 -73z" />
    <glyph glyph-name="percent" unicode="%" horiz-adv-x="1454" 
d="M364.5 1378q124.5 0 211 -86t86.5 -211t-86.5 -211t-211 -86t-210.5 86t-86 211t86 211t210.5 86zM365 897q74 0 124 54.5t50 130t-50.5 130t-123.5 54.5q-72 0 -123.5 -54.5t-51.5 -130t51.5 -130t123.5 -54.5zM289 20l796 1373l80 -45l-796 -1375zM1089.5 580
q124.5 0 210.5 -86t86 -211t-86 -211t-210.5 -86t-210.5 86t-86 211t86 211t210.5 86zM1090 98q74 0 124 54.5t50 130t-50.5 130t-123.5 54.5q-72 0 -123.5 -54.5t-51.5 -130t51.5 -130t123.5 -54.5z" />
    <glyph glyph-name="ampersand" unicode="&#x26;" horiz-adv-x="1302" 
d="M1116 592l111 -92q-68 -92 -174 -203l229 -297h-188l-148 190q-94 -94 -212 -154.5t-228 -60.5q-168 0 -281.5 109t-113.5 270q0 160 122 283q63 63 230 170q-135 174 -135 293q0 117 78.5 203t218.5 86q135 0 211.5 -82t76.5 -193q0 -137 -127 -248q-14 -12 -37.5 -29.5
t-72.5 -58.5l285 -366q104 110 155 180zM854 303l-303 391q-109 -68 -193 -141q-96 -86 -96 -197q0 -102 68.5 -171.5t173.5 -69.5q153 0 350 188zM526 973l62 -84l90 69q92 74 92 158q0 68 -44 104.5t-103 36.5q-63 0 -107.5 -43t-44.5 -106q0 -59 55 -135z" />
    <glyph glyph-name="quotesingle" unicode="'" horiz-adv-x="385" 
d="M274 1366l-26 -549h-111l-26 549h163z" />
    <glyph glyph-name="parenleft" unicode="(" horiz-adv-x="602" 
d="M342 1503l129 -59q-66 -176 -94 -305q-61 -252 -61.5 -571.5t61.5 -571.5q29 -129 94 -305l-129 -60q-57 152 -100 308q-78 276 -78 628.5t78 628.5q43 155 100 307z" />
    <glyph glyph-name="parenright" unicode=")" horiz-adv-x="602" 
d="M260 -369l-129 60q66 176 94 305q61 252 61.5 571.5t-61.5 571.5q-29 129 -94 305l129 59q57 -152 100 -307q78 -276 78 -628.5t-78 -628.5q-43 -156 -100 -308z" />
    <glyph glyph-name="asterisk" unicode="*" 
d="M285 1327l237 -88l-10 254h139l-10 -254l238 88l43 -129l-246 -70l158 -198l-111 -80l-141 211l-142 -211l-110 80l157 198l-245 70z" />
    <glyph glyph-name="plus" unicode="+" horiz-adv-x="1024" 
d="M68 614v136h370v352h148v-352h370v-136h-370v-352h-148v352h-370z" />
    <glyph glyph-name="comma" unicode="," horiz-adv-x="561" 
d="M49 -272l168 473l135 -49l-207 -463z" />
    <glyph glyph-name="hyphen" unicode="-" horiz-adv-x="614" 
d="M82 360v152h450v-152h-450z" />
    <glyph glyph-name="period" unicode="." horiz-adv-x="466" 
d="M131 82q0 41 31 71.5t71.5 30.5t71.5 -30.5t31 -71.5t-31 -71.5t-71.5 -30.5t-71.5 30.5t-31 71.5z" />
    <glyph glyph-name="slash" unicode="/" horiz-adv-x="1187" 
d="M0 -311l1028 1847l119 -61l-1028 -1844z" />
    <glyph glyph-name="zero" unicode="0" 
d="M582 -25q-209 0 -351 205q-137 199 -137 502t137 502q141 205 350.5 205t350.5 -205q137 -199 137 -502t-137 -502q-141 -205 -350 -205zM581.5 1249q-141.5 0 -235.5 -151q-100 -160 -100 -416t100 -416q94 -152 235.5 -151.5t235.5 151.5q100 160 100.5 416t-100.5 416
q-94 151 -235.5 151z" />
    <glyph glyph-name="one" unicode="1" 
d="M545 0v1223h-230l80 143h301v-1366h-151z" />
    <glyph glyph-name="two" unicode="2" 
d="M985 0h-883l498 575q127 150 160 199q76 109 76 209q0 117 -76 191.5t-197 74.5q-147 0 -227 -121q-43 -66 -45 -161h-152q8 174 103 282q123 139 323 140q182 0 302 -116t120 -292q0 -137 -108 -293q-55 -76 -187 -227l-284 -322h577v-139z" />
    <glyph glyph-name="three" unicode="3" 
d="M328 1028h-152q6 109 64 201q102 160 317 160q182 0 283.5 -109t101.5 -260q0 -215 -176 -303q27 -10 52.5 -27.5t62.5 -54.5t59.5 -101.5t22.5 -146.5q0 -186 -120 -299t-300 -113q-121 0 -225.5 56.5t-155.5 179.5q-27 66 -31 143h152q10 -84 49 -137q70 -102 211 -102
q113 0 190.5 80.5t77.5 195.5q0 168 -135 230q-68 33 -156 28v135q88 -6 156 29q115 59 115 203q0 100 -57.5 166.5t-176.5 66.5q-115 0 -176 -78q-47 -61 -53 -143z" />
    <glyph glyph-name="four" unicode="4" 
d="M893 1442v-1080h168v-139h-168v-223h-152v223h-700zM309 362h432v617z" />
    <glyph glyph-name="five" unicode="5" 
d="M981 1366v-139h-438l-88 -295q35 8 86 8q203 0 326.5 -135t123.5 -338q0 -221 -144.5 -356.5t-352.5 -135.5q-176 0 -306 107q-74 63 -118 139l120 86q31 -61 93 -110q100 -82 221 -82q143 0 239.5 102t96.5 248q0 147 -95.5 241.5t-240.5 94.5q-129 0 -264 -94l198 659
h543z" />
    <glyph glyph-name="six" unicode="6" 
d="M688 1399l115 -86l-314 -436q59 18 121 18q195 0 319 -129t124 -322q0 -205 -132.5 -337t-336.5 -132q-152 0 -263.5 73t-160.5 176.5t-49 215.5q0 156 112 314zM582 115q139 0 229 93t90 232q0 137 -91 226.5t-230.5 89.5t-228.5 -90.5t-89 -225.5q0 -139 89.5 -232
t230.5 -93z" />
    <glyph glyph-name="seven" unicode="7" 
d="M106 47l777 1180h-748v139h1004l-914 -1399z" />
    <glyph glyph-name="eight" unicode="8" 
d="M793 711q207 -92 206 -334q0 -170 -109.5 -286t-308 -116t-308 116t-109.5 286q0 242 207 334q-166 96 -166 299q0 156 100.5 267.5t276.5 111.5t276 -112t100 -267q1 -203 -165 -299zM581.5 772q100.5 0 167 67.5t66.5 168.5q0 109 -68.5 175t-165 66t-165 -66.5
t-68.5 -174.5q0 -100 66.5 -168t167 -68zM581.5 115q118.5 0 192.5 74.5t74 191.5q0 115 -75 187.5t-191.5 72.5t-191.5 -72.5t-75 -187.5q0 -117 74 -191.5t192.5 -74.5z" />
    <glyph glyph-name="nine" unicode="9" 
d="M475 -33l-115 84l314 436q-59 -18 -121 -18q-195 0 -318.5 129t-123.5 322q0 205 132 337t337 132q152 0 263 -73t160.5 -176.5t49.5 -215.5q0 -158 -113 -314zM582 1249q-139 0 -229.5 -93t-90.5 -232q0 -137 91 -226.5t230.5 -89.5t228.5 90t89 226q0 139 -89 232
t-230 93z" />
    <glyph glyph-name="colon" unicode=":" horiz-adv-x="466" 
d="M131 768q0 41 31 71.5t71.5 30.5t71.5 -30.5t31 -71.5t-31 -71.5t-71.5 -30.5t-71.5 30.5t-31 71.5zM131 82q0 41 31 71.5t71.5 30.5t71.5 -30.5t31 -71.5t-31 -71.5t-71.5 -30.5t-71.5 30.5t-31 71.5z" />
    <glyph glyph-name="semicolon" unicode=";" horiz-adv-x="561" 
d="M160 768q0 41 30.5 71.5t71.5 30.5t72 -30.5t31 -71.5t-31 -71.5t-72 -30.5t-71.5 30.5t-30.5 71.5zM49 -272l168 473l135 -49l-207 -463z" />
    <glyph glyph-name="less" unicode="&#x3c;" horiz-adv-x="1024" 
d="M225 676l731 -332v-147l-888 415v127l888 416v-147z" />
    <glyph glyph-name="equal" unicode="=" horiz-adv-x="1024" 
d="M68 786v136h888v-136h-888zM68 471v135h888v-135h-888z" />
    <glyph glyph-name="greater" unicode="&#x3e;" horiz-adv-x="1024" 
d="M799 676l-731 332v147l888 -416v-127l-888 -415v147z" />
    <glyph glyph-name="question" unicode="?" horiz-adv-x="892" 
d="M592 586h147q4 -113 -47 -189q-37 -55 -103.5 -90t-142.5 -35q-129 0 -212.5 84t-83.5 211q0 174 169 248q39 16 90 33l85 29q59 25 95 62.5t36 115.5q0 90 -47.5 139t-133.5 49q-16 0 -36.5 -4t-57.5 -19.5t-61.5 -58.5t-24.5 -106q0 -35 12 -78h-151q-8 43 -8 94
q0 145 92 228t235 83q164 0 248 -96t84 -229q0 -229 -227 -307q-18 -6 -53 -16.5t-59.5 -19.5t-51.5 -24q-84 -43 -84 -133q0 -66 41 -105.5t102 -39.5q80 0 119 61q29 50 29 113zM344 82q0 41 31 71.5t71.5 30.5t71.5 -30.5t31 -71.5t-31 -71.5t-71.5 -30.5t-71.5 30.5
t-31 71.5z" />
    <glyph glyph-name="at" unicode="@" horiz-adv-x="1501" 
d="M983 874l27 132h106q-78 -330 -96 -510v-17q6 -94 76 -94q80 0 155.5 110.5t75.5 280.5q0 227 -158.5 368.5t-388.5 141.5q-254 0 -431 -177t-177 -433q0 -104 33 -204.5t102.5 -193t196.5 -149.5t295 -57q225 0 428 94l30 -94q-205 -98 -460 -99q-319 0 -524 197
t-205 508q0 297 205.5 501.5t504.5 204.5q268 0 457.5 -168.5t189.5 -437.5q0 -205 -103 -344t-230 -139q-63 0 -104.5 38t-45.5 99q-94 -145 -256 -145q-129 0 -208 94t-79 235q0 170 101.5 293t257.5 123q88 0 144 -44t81 -114zM709 397q104 0 169.5 97.5t65.5 228.5
q0 100 -51 149.5t-125 49.5q-104 0 -177 -91.5t-73 -209.5q0 -104 56.5 -164t134.5 -60z" />
    <glyph glyph-name="A" unicode="A" horiz-adv-x="1273" 
d="M1090 0l-160 385h-582l-164 -385h-168l629 1432l612 -1432h-167zM408 528h462l-229 547z" />
    <glyph glyph-name="B" unicode="B" horiz-adv-x="1085" 
d="M176 1366h246q205 0 313 -86q123 -94 123 -283q0 -176 -135 -268q131 -33 195.5 -132t64.5 -212q0 -92 -40 -170t-99 -125q-115 -90 -328 -90h-340v1366zM328 1223v-457h114q31 0 59.5 3t68.5 16.5t70 36t50.5 67.5t20.5 104q0 63 -24.5 109.5t-55.5 69t-74 35
t-65.5 14.5t-45.5 2h-118zM328 631v-488h174q166 0 239 58q90 66 90 188q0 137 -116 201q-74 41 -232 41h-155z" />
    <glyph glyph-name="C" unicode="C" horiz-adv-x="1323" 
d="M1221 1253v-188q-82 82 -179 127q-117 53 -235 53q-236 0 -392.5 -165t-156.5 -404q0 -258 171 -407.5t380 -149.5q131 0 254 63q86 43 158 115v-188q-186 -133 -412 -134q-303 0 -505 203t-202 500q0 305 204 508t511 203q226 -1 404 -136z" />
    <glyph glyph-name="D" unicode="D" horiz-adv-x="1294" 
d="M176 0v1366h279q315 0 503 -160q233 -195 234 -524q0 -319 -240 -524q-98 -84 -210.5 -121t-288.5 -37h-277zM328 1223v-1080h133q244 0 391 123q184 156 184 416q0 246 -157.5 393.5t-417.5 147.5h-133z" />
    <glyph glyph-name="E" unicode="E" horiz-adv-x="987" 
d="M885 1366v-143h-557v-406h540v-143h-540v-531h557v-143h-709v1366h709z" />
    <glyph glyph-name="F" unicode="F" horiz-adv-x="888" 
d="M799 1366v-143h-471v-404h454v-143h-454v-676h-152v1366h623z" />
    <glyph glyph-name="G" unicode="G" horiz-adv-x="1552" 
d="M881 543v143h569v-33q0 -254 -131 -432q-182 -246 -508 -246q-303 0 -506 204t-203 503t204 503t509 204q242 0 418 -136q90 -70 158 -161l-113 -103q-59 84 -129 141q-141 115 -332 115q-244 0 -401.5 -161.5t-157.5 -403.5q0 -176 86 -308t210 -192.5t259 -60.5
t246.5 62.5t171.5 166.5q51 88 55 195h-405z" />
    <glyph glyph-name="H" unicode="H" horiz-adv-x="1355" 
d="M328 1366v-555h700v555h152v-1366h-152v668h-700v-668h-152v1366h152z" />
    <glyph glyph-name="I" unicode="I" horiz-adv-x="503" 
d="M176 1366h152v-1366h-152v1366z" />
    <glyph glyph-name="J" unicode="J" horiz-adv-x="626" 
d="M299 1366h152v-1104q0 -129 -26 -214t-108 -140q-76 -49 -167 -49q-129 0 -244 100l84 119q84 -76 157.5 -76t110.5 51q41 51 41 209v1104z" />
    <glyph glyph-name="K" unicode="K" 
d="M328 1366v-586l581 586h205l-639 -637l660 -729h-209l-559 627l-39 -39v-588h-152v1366h152z" />
    <glyph glyph-name="L" unicode="L" horiz-adv-x="733" 
d="M176 1366h152v-1223h377v-143h-529v1366z" />
    <glyph glyph-name="M" unicode="M" horiz-adv-x="1767" 
d="M285 0h-156l227 1442l525 -1153l534 1155l213 -1444h-155l-130 950l-464 -1007l-459 1007z" />
    <glyph glyph-name="N" unicode="N" horiz-adv-x="1568" 
d="M328 0h-152v1423l1065 -1116v1059h152v-1427l-1065 1116v-1055z" />
    <glyph glyph-name="O" unicode="O" horiz-adv-x="1626" 
d="M813 -25q-299 0 -505 203t-206 504q0 303 207 505t504 202t504 -202t207 -505q0 -301 -206 -504t-505 -203zM813 1245q-231 0 -393 -163.5t-162 -399.5t162 -399.5t393 -163.5t393 163.5t162 399.5t-162 399.5t-393 163.5z" />
    <glyph glyph-name="P" unicode="P" horiz-adv-x="933" 
d="M176 1366h248q233 0 344 -96q125 -106 125 -293q0 -160 -107.5 -271.5t-324.5 -111.5h-133v-594h-152v1366zM328 1223v-486h125q135 0 211.5 65.5t76.5 182.5q0 238 -301 238h-112z" />
    <glyph glyph-name="Q" unicode="Q" horiz-adv-x="1626" 
d="M1335 -14l-110 114q-184 -125 -412 -125q-297 0 -504 203t-207 504q0 303 207 505t504 202t504 -202t207 -505q0 -287 -193 -489l201 -207h-197zM983 549l240 -246q145 158 145 379q0 233 -163 398t-392 165q-231 0 -393 -163.5t-162 -399.5t162 -399.5t393 -163.5
q166 0 303 90l-330 340h197z" />
    <glyph glyph-name="R" unicode="R" horiz-adv-x="1028" 
d="M176 1366h219q221 0 332 -76q150 -100 150 -303q0 -158 -95.5 -262t-249.5 -115l435 -610h-185l-415 598h-39v-598h-152v1366zM328 1223v-490h96q141 0 221 65.5t80 184.5q0 139 -109 201q-70 39 -196 39h-92z" />
    <glyph glyph-name="S" unicode="S" horiz-adv-x="1060" 
d="M907 1176l-121 -80q-33 63 -79 102q-61 47 -154 47q-102 0 -165.5 -58.5t-63.5 -152.5q0 -70 51 -119q41 -41 143 -86l131 -57q145 -63 211 -129q98 -98 98 -248q0 -186 -122.5 -303t-309.5 -117q-184 0 -297 111q-92 90 -127 242l148 41q14 -102 82 -174q76 -76 196 -76
q131 0 203 78.5t72 191.5q0 98 -68 160q-39 37 -164 94l-122 57q-125 57 -183 113q-94 90 -94 223q0 158 107.5 255.5t275.5 97.5q127 0 219 -62q84 -55 133 -151z" />
    <glyph glyph-name="T" unicode="T" horiz-adv-x="872" 
d="M844 1223h-332v-1223h-152v1223h-331v143h815v-143z" />
    <glyph glyph-name="U" unicode="U" horiz-adv-x="1323" 
d="M328 1366v-838q0 -78 3 -120.5t28.5 -105t76.5 -105.5q92 -78 225.5 -78t225.5 78q51 43 76.5 105.5t28.5 105.5t3 120v838h152v-879q0 -209 -86 -327q-63 -86 -166.5 -135.5t-233 -49.5t-232.5 49.5t-167 135.5q-86 119 -86 327v879h152z" />
    <glyph glyph-name="V" unicode="V" horiz-adv-x="1138" 
d="M16 1366h168l385 -1042l385 1042h168l-553 -1448z" />
    <glyph glyph-name="W" unicode="W" horiz-adv-x="1961" 
d="M16 1366h168l361 -1024l428 1094l405 -1094l400 1024h168l-574 -1438l-401 1094l-430 -1094z" />
    <glyph glyph-name="X" unicode="X" horiz-adv-x="1032" 
d="M29 0l403 707l-366 659h172l282 -514l291 514h172l-375 -659l396 -707h-173l-313 561l-317 -561h-172z" />
    <glyph glyph-name="Y" unicode="Y" horiz-adv-x="1085" 
d="M465 0v588l-449 778h177l348 -610l352 610h176l-453 -778v-588h-151z" />
    <glyph glyph-name="Z" unicode="Z" horiz-adv-x="1097" 
d="M1049 1366l-746 -1223h725v-143h-979l746 1223h-650v143h904z" />
    <glyph glyph-name="bracketleft" unicode="[" horiz-adv-x="593" 
d="M508 1358h-197v-1583h197v-135h-344v1853h344v-135z" />
    <glyph glyph-name="backslash" unicode="\" horiz-adv-x="1187" 
d="M1188 -311l-119 -58l-1028 1844l119 61z" />
    <glyph glyph-name="bracketright" unicode="]" horiz-adv-x="593" 
d="M86 -225h197v1583h-197v135h344v-1853h-344v135z" />
    <glyph glyph-name="asciicircum" unicode="^" horiz-adv-x="1024" 
d="M512 1253l-299 -505h-160l363 618h192l363 -618h-160z" />
    <glyph glyph-name="underscore" unicode="_" horiz-adv-x="1024" 
d="M0 -270v131h1024v-131h-1024z" />
    <glyph glyph-name="grave" unicode="`" horiz-adv-x="1024" 
d="M510 1018l-277 276l152 70l215 -297z" />
    <glyph glyph-name="a" unicode="a" horiz-adv-x="1077" 
d="M791 729v121h147v-850h-147v119q-111 -143 -291 -144q-172 0 -293 119t-121 332q0 209 120 326.5t294 117.5q185 0 291 -141zM516 739q-117 0 -197.5 -83t-80.5 -230q0 -141 74.5 -230.5t203.5 -89.5t206 92.5t77 225.5q0 152 -86 233.5t-197 81.5z" />
    <glyph glyph-name="b" unicode="b" horiz-adv-x="1077" 
d="M287 119v-119h-148v1493h148v-762q113 139 291 139q190 0 301.5 -134t111.5 -316q0 -184 -110.5 -314.5t-296.5 -130t-297 143.5zM563 106q125 0 201 91.5t76 222.5q0 147 -84 233t-194.5 86t-196.5 -86t-86 -231q0 -133 78.5 -224.5t205.5 -91.5z" />
    <glyph glyph-name="c" unicode="c" horiz-adv-x="897" 
d="M805 788v-176q-100 127 -266 127q-125 0 -213 -85t-88 -232.5t88 -231.5t211 -84q164 0 274 134v-177q-121 -88 -270 -88q-199 0 -327 126t-128 319q0 195 129 322.5t326 127.5q147 0 264 -82z" />
    <glyph glyph-name="d" unicode="d" horiz-adv-x="1077" 
d="M791 729v764h147v-1493h-147v119q-111 -143 -291 -144q-172 0 -293 119t-121 332q0 209 120 326.5t294 117.5q185 0 291 -141zM516 739q-117 0 -197.5 -83t-80.5 -230q0 -141 74.5 -230.5t203.5 -89.5t206 92.5t77 225.5q0 152 -86 233.5t-197 81.5z" />
    <glyph glyph-name="e" unicode="e" horiz-adv-x="985" 
d="M770 285l123 -68q-43 -82 -105 -137q-117 -104 -282 -105q-172 0 -296 112t-124 333q0 195 111.5 322.5t300.5 127.5q213 0 321 -155q80 -115 80 -294v-26h-661q2 -129 79.5 -209t190.5 -80q100 0 174 62q57 49 88 117zM248 518h500q-18 100 -87 160.5t-163 60.5
q-92 0 -163 -62.5t-87 -158.5z" />
    <glyph glyph-name="f" unicode="f" horiz-adv-x="491" 
d="M500 715h-209v-715h-148v715h-82v135h82v367q0 170 82 239q66 55 170 55q55 0 105 -18v-143q-45 18 -97 18q-68 0 -94 -45q-18 -31 -18 -123v-350h209v-135z" />
    <glyph glyph-name="g" unicode="g" horiz-adv-x="1077" 
d="M791 729v121h147v-832q0 -223 -82 -333q-117 -158 -340 -158q-188 0 -303 115q-111 111 -111 274h146q0 -102 65 -176q74 -82 205 -82q154 0 225 119q47 76 48 217v125q-111 -143 -291 -144q-172 0 -293 119t-121 332q0 209 120 326.5t294 117.5q185 0 291 -141zM516 739
q-117 0 -197.5 -83t-80.5 -230q0 -141 74.5 -230.5t203.5 -89.5t206 92.5t77 225.5q0 152 -86 233.5t-197 81.5z" />
    <glyph glyph-name="h" unicode="h" horiz-adv-x="962" 
d="M139 0v1493h148v-741q90 119 243 118q164 0 244 -116q49 -72 49 -228v-526h-147v522q0 104 -39 156q-47 61 -139 61q-94 0 -150 -65q-61 -72 -61 -230v-444h-148z" />
    <glyph glyph-name="i" unicode="i" horiz-adv-x="425" 
d="M139 850h148v-850h-148v850zM109 1171q0 43 30.5 74t73.5 31t73.5 -31t30.5 -74t-30.5 -73.5t-73.5 -30.5t-73.5 30.5t-30.5 73.5z" />
    <glyph glyph-name="j" unicode="j" horiz-adv-x="425" 
d="M139 850h148v-1329h-148v1329zM109 1171q0 43 30.5 74t73.5 31t73.5 -31t30.5 -74t-30.5 -73.5t-73.5 -30.5t-73.5 30.5t-30.5 73.5z" />
    <glyph glyph-name="k" unicode="k" horiz-adv-x="864" 
d="M139 1493h148v-958l311 315h193l-365 -365l430 -485h-192l-340 387l-37 -37v-350h-148v1493z" />
    <glyph glyph-name="l" unicode="l" horiz-adv-x="425" 
d="M139 1493h148v-1493h-148v1493z" />
    <glyph glyph-name="m" unicode="m" horiz-adv-x="1402" 
d="M139 0v850h148v-90q76 111 211 110q156 0 233 -137q88 137 256 137q276 0 277 -331v-539h-148v516q0 61 -7 103.5t-43 81t-101 38.5q-188 0 -189 -266v-473h-147v504q0 236 -156 235q-186 0 -186 -276v-463h-148z" />
    <glyph glyph-name="n" unicode="n" horiz-adv-x="962" 
d="M139 0v850h148v-98q90 119 243 118q164 0 244 -116q49 -72 49 -228v-526h-147v522q0 104 -39 156q-47 61 -139 61q-94 0 -150 -65q-61 -72 -61 -230v-444h-148z" />
    <glyph glyph-name="o" unicode="o" horiz-adv-x="1073" 
d="M536.5 -25q-194.5 0 -322.5 127t-128 320q0 195 128 321.5t322.5 126.5t322.5 -127t128 -321q0 -193 -128 -320t-322.5 -127zM537 739q-125 0 -212 -85t-87 -232.5t88 -231.5t210.5 -84t211 84t88.5 232q0 150 -87 233.5t-212 83.5z" />
    <glyph glyph-name="p" unicode="p" horiz-adv-x="1077" 
d="M287 119v-598h-148v1329h148v-119q113 139 291 139q190 0 301.5 -134t111.5 -316q0 -184 -110.5 -314.5t-296.5 -130t-297 143.5zM563 106q125 0 201 91.5t76 222.5q0 147 -84 233t-194.5 86t-196.5 -86t-86 -231q0 -133 78.5 -224.5t205.5 -91.5z" />
    <glyph glyph-name="q" unicode="q" horiz-adv-x="1077" 
d="M791 729v121h147v-1329h-147v598q-111 -143 -291 -144q-172 0 -293 119t-121 332q0 209 120 326.5t294 117.5q185 0 291 -141zM516 739q-117 0 -197.5 -83t-80.5 -230q0 -141 74.5 -230.5t203.5 -89.5t206 92.5t77 225.5q0 152 -86 233.5t-197 81.5z" />
    <glyph glyph-name="r" unicode="r" horiz-adv-x="606" 
d="M139 0v850h148v-92q72 113 192 112q61 0 131 -34l-69 -134q-41 29 -86 29q-78 0 -119 -53q-49 -66 -49 -229v-449h-148z" />
    <glyph glyph-name="s" unicode="s" horiz-adv-x="720" 
d="M610 717l-121 -64q-35 86 -118 86q-43 0 -73 -24.5t-30 -71.5q0 -43 28 -64.5t110 -56.5q162 -68 212 -131q45 -55 46 -137q0 -129 -83 -204t-210 -75q-25 0 -53.5 5.5t-79 22.5t-95.5 66.5t-69 123.5l127 53q51 -139 172 -140q68 0 103.5 41t35.5 95q0 29 -9 50
t-30.5 37.5t-41 27t-56.5 26.5q-164 72 -207 125q-39 49 -39 125q0 111 68.5 174t179.5 63q161 1 233 -153z" />
    <glyph glyph-name="t" unicode="t" horiz-adv-x="438" 
d="M438 715h-147v-715h-148v715h-90v135h90v307h148v-307h147v-135z" />
    <glyph glyph-name="u" unicode="u" horiz-adv-x="954" 
d="M287 850v-496q0 -129 41 -182q51 -66 149 -66t150 66q41 53 41 182v496h147v-512q0 -172 -78 -256q-100 -106 -260 -106.5t-260 106.5q-78 84 -78 256v512h148z" />
    <glyph glyph-name="v" unicode="v" horiz-adv-x="868" 
d="M16 850h164l254 -574l254 574h164l-418 -905z" />
    <glyph glyph-name="w" unicode="w" horiz-adv-x="1396" 
d="M16 850h164l252 -578l266 643l265 -643l254 578h163l-422 -909l-262 634l-262 -634z" />
    <glyph glyph-name="x" unicode="x" horiz-adv-x="929" 
d="M16 0l363 455l-309 395h180l219 -289l223 289h180l-311 -397l352 -453h-180l-268 346l-268 -346h-181z" />
    <glyph glyph-name="y" unicode="y" horiz-adv-x="942" 
d="M133 -479l275 559l-392 770h168l301 -608l277 608h164l-629 -1329h-164z" />
    <glyph glyph-name="z" unicode="z" horiz-adv-x="942" 
d="M926 850l-615 -715h590v-135h-885l615 715h-496v135h791z" />
    <glyph glyph-name="braceleft" unicode="{" horiz-adv-x="1026" 
d="M563 1085v-348q0 -98 -26 -145q-33 -55 -99 -86q66 -31 99 -86q27 -47 26 -146v-348q0 -104 39 -141t127 -37h31v-125h-55q-129 0 -191 41q-98 66 -98 238v362q0 80 -27 125q-33 53 -90 57v119q57 4 90 58q27 45 27 125v362q0 172 98 238q61 41 191 41h55v-125h-31
q-88 0 -127 -37.5t-39 -141.5z" />
    <glyph glyph-name="bar" unicode="|" horiz-adv-x="1024" 
d="M438 -512v2048h148v-2048h-148z" />
    <glyph glyph-name="braceright" unicode="}" horiz-adv-x="1026" 
d="M463 -74v348q0 98 26 146q33 55 99 86q-66 31 -99 86q-27 47 -26 145v348q0 104 -39 141.5t-127 37.5h-31v125h56q129 0 190 -41q98 -66 98 -238v-362q0 -80 27 -125q33 -53 90 -58v-119q-57 -4 -90 -57q-27 -45 -27 -125v-362q0 -172 -98 -238q-61 -41 -190 -41h-56v125
h31q88 0 127 37t39 141z" />
    <glyph glyph-name="asciitilde" unicode="~" horiz-adv-x="1368" 
d="M1085 1489l91 -53q-39 -90 -103 -150q-80 -80 -196 -80q-70 0 -222 70q-141 66 -194 65q-59 0 -107 -41q-39 -33 -71 -106l-90 53q47 100 98 160q70 78 178 78q86 0 231 -70q141 -66 195 -65q76 0 125 49q38 35 65 90z" />
    <glyph glyph-name="uni00A0" unicode="&#xa0;" horiz-adv-x="477" 
 />
    <glyph glyph-name="currency" unicode="&#xa4;" horiz-adv-x="1368" 
d="M193 1303l194 -193q121 104 297 104t297 -104l195 193l81 -82l-194 -195q104 -121 104 -291t-104 -291l192 -192l-81 -82l-193 190q-121 -104 -297 -104t-297 104l-192 -190l-82 82l192 192q-104 121 -104 291t104 291l-194 195zM684 387q147 0 245.5 98.5t98.5 250
t-98.5 249.5t-245.5 98t-245.5 -98t-98.5 -249.5t98.5 -250t245.5 -98.5z" />
    <glyph glyph-name="brokenbar" unicode="&#xa6;" horiz-adv-x="1024" 
d="M438 799v737h148v-737h-148zM438 -512v737h148v-737h-148z" />
    <glyph glyph-name="section" unicode="&#xa7;" 
d="M950 1122h-147q2 86 -35 158q-51 94 -166 94q-96 0 -154.5 -60.5t-58.5 -148.5q0 -43 18.5 -78.5t37 -55t65.5 -43t61.5 -30t67.5 -24.5q150 -53 209 -105q109 -94 108 -254q0 -109 -55 -191.5t-151 -127.5q174 -78 174 -279q0 -143 -90.5 -247.5t-268.5 -104.5
q-125 0 -207 56.5t-116 144.5q-33 80 -29 178h147q0 -94 39 -156q55 -88 168 -88q96 0 150.5 56.5t54.5 154.5q0 90 -48 136.5t-132 78.5q-8 2 -51 17.5t-62.5 25t-55.5 24.5t-63.5 33.5t-50.5 39.5q-102 92 -102 243q0 236 207 322q-172 90 -172 278q0 141 93 240.5
t265 99.5q231 0 315 -196q37 -91 35 -191zM581.5 797q-94.5 0 -159 -64.5t-64.5 -159t64.5 -159t159 -64.5t159 64.5t64.5 159t-64.5 159t-159 64.5z" />
    <glyph glyph-name="copyright" unicode="&#xa9;" horiz-adv-x="1515" 
d="M51 682q0 293 208 500t499 207t498.5 -207t207.5 -500q0 -291 -207.5 -498t-498.5 -207t-499 207t-208 498zM1350 682q0 246 -173 419t-419 173t-419 -173t-173 -419q0 -244 173 -417t419 -173t419 173t173 417zM1053 1018v-164q-49 61 -119 90t-131 29q-117 0 -200 -81
t-83 -218q0 -139 84 -217t197 -78q154 0 258 125v-166q-113 -82 -254 -82q-184 0 -305 116.5t-121 299.5q0 180 122 302t304 122q142 0 248 -78z" />
    <glyph glyph-name="guillemotleft" unicode="&#xab;" horiz-adv-x="880" 
d="M229 434l246 -299l-94 -74l-307 373l307 385l94 -76zM532 434l246 -299l-94 -74l-307 373l307 385l94 -76z" />
    <glyph glyph-name="logicalnot" unicode="&#xac;" horiz-adv-x="1024" 
d="M956 0h-143v416h-745v131h888v-547z" />
    <glyph glyph-name="uni00AD" unicode="&#xad;" horiz-adv-x="614" 
d="M82 360v152h450v-152h-450z" />
    <glyph glyph-name="registered" unicode="&#xae;" horiz-adv-x="1540" 
d="M68 680q0 301 200.5 501.5t501.5 200.5t502 -200.5t201 -501.5t-201 -502t-502 -201t-501.5 201t-200.5 502zM1358 680q0 252 -168 420t-420 168t-420 -168t-168 -420t168 -420t420 -168t420 168t168 420zM1055 297h-140l-249 324v-324h-111v766h139q295 0 295 -219
q0 -86 -55 -144.5t-143 -68.5zM666 965v-246h45q168 0 168 121q0 35 -12.5 59.5t-28 36.5t-42 19.5t-45 8.5t-44.5 1h-41z" />
    <glyph glyph-name="degree" unicode="&#xb0;" horiz-adv-x="1009" 
d="M221 1087.5q0 120.5 81 201.5t202 81t201.5 -81t80.5 -201.5t-80.5 -201.5t-201.5 -81t-202 81t-81 201.5zM324 1087.5q0 -88.5 56 -138.5t123.5 -50t124 50t56.5 138.5t-56.5 138.5t-124 50t-123.5 -50t-56 -138.5z" />
    <glyph glyph-name="plusminus" unicode="&#xb1;" horiz-adv-x="1024" 
d="M68 707v135h370v350h148v-350h370v-135h-370v-351h-148v351h-370zM68 137v135h888v-135h-888z" />
    <glyph glyph-name="mu" unicode="&#xb5;" horiz-adv-x="1071" 
d="M287 -348h-148v1198h148v-424q0 -164 61.5 -242t179.5 -78q135 0 207 121q49 80 49 217v406h148v-850h-148v176q-33 -90 -100.5 -145.5t-159.5 -55.5q-70 0 -127 35t-76.5 61.5t-33.5 53.5v-473z" />
    <glyph glyph-name="mu" unicode="&#x3bc;" horiz-adv-x="1071" 
d="M287 -348h-148v1198h148v-424q0 -164 61.5 -242t179.5 -78q135 0 207 121q49 80 49 217v406h148v-850h-148v176q-33 -90 -100.5 -145.5t-159.5 -55.5q-70 0 -127 35t-76.5 61.5t-33.5 53.5v-473z" />
    <glyph glyph-name="paragraph" unicode="&#xb6;" horiz-adv-x="1187" 
d="M578 -203h-127v846h-31q-164 0 -269.5 100.5t-105.5 255.5q0 102 52.5 195.5t168.5 136.5q90 35 230 35h548v-119h-122v-1450h-127v1450h-217v-1450z" />
    <glyph glyph-name="uni2219" unicode="&#xb7;" horiz-adv-x="409" 
d="M74 696.5q0 53.5 39 92t92 38.5t92 -38.5t39 -92t-39 -92.5t-92 -39t-92 39t-39 92.5z" />
    <glyph glyph-name="uni2219" unicode="&#x2219;" horiz-adv-x="409" 
d="M74 696.5q0 53.5 39 92t92 38.5t92 -38.5t39 -92t-39 -92.5t-92 -39t-92 39t-39 92.5z" />
    <glyph glyph-name="guillemotright" unicode="&#xbb;" horiz-adv-x="880" 
d="M348 446l-246 299l95 74l307 -373l-307 -385l-95 76zM651 446l-245 299l94 74l307 -373l-307 -385l-94 76z" />
    <glyph glyph-name="afii10023" unicode="&#x401;" horiz-adv-x="987" 
d="M885 1366v-143h-557v-406h540v-143h-540v-531h557v-143h-709v1366h709zM229 1606q0 43 31 73.5t74 30.5t73.5 -30.5t30.5 -73.5t-30.5 -74t-73.5 -31t-74 31t-31 74zM618 1606q0 43 31 73.5t74 30.5t73.5 -30.5t30.5 -73.5t-30.5 -74t-73.5 -31t-74 31t-31 74z" />
    <glyph glyph-name="afii10051" unicode="&#x402;" horiz-adv-x="1388" 
d="M922 1223h-414v-402q172 14 283 15q188 0 307 -66q205 -113 205 -381q0 -188 -114 -301t-292 -113q-141 0 -262 64l49 141q104 -61 215 -61q113 0 180.5 71.5t67.5 192.5q0 190 -146 266q-86 43 -227 43q-119 0 -266 -14v-678h-152v1223h-327v143h893v-143z" />
    <glyph glyph-name="afii10052" unicode="&#x403;" horiz-adv-x="827" 
d="M176 0v1366h623v-143h-471v-1223h-152zM659 1806l144 -92l-314 -239l-88 65z" />
    <glyph glyph-name="afii10053" unicode="&#x404;" horiz-adv-x="1320" 
d="M1219 1253v-188q-74 74 -179 123q-131 57 -276 57q-207 0 -345 -134t-155 -333h791v-143h-797q-2 -225 149.5 -370.5t358.5 -145.5q154 0 295 67q96 47 158 111v-188q-207 -133 -453 -134q-303 0 -483.5 199t-180.5 504q0 311 183.5 511t488.5 200q248 -1 445 -136z" />
    <glyph glyph-name="afii10054" unicode="&#x405;" horiz-adv-x="1060" 
d="M907 1176l-121 -80q-33 63 -79 102q-61 47 -154 47q-102 0 -165.5 -58.5t-63.5 -152.5q0 -70 51 -119q41 -41 143 -86l131 -57q145 -63 211 -129q98 -98 98 -248q0 -186 -122.5 -303t-309.5 -117q-184 0 -297 111q-92 90 -127 242l148 41q14 -102 82 -174q76 -76 196 -76
q131 0 203 78.5t72 191.5q0 98 -68 160q-39 37 -164 94l-122 57q-125 57 -183 113q-94 90 -94 223q0 158 107.5 255.5t275.5 97.5q127 0 219 -62q84 -55 133 -151z" />
    <glyph glyph-name="afii10055" unicode="&#x406;" horiz-adv-x="503" 
d="M176 1366h152v-1366h-152v1366z" />
    <glyph glyph-name="afii10056" unicode="&#x407;" horiz-adv-x="503" 
d="M176 1366h152v-1366h-152v1366zM0 1606q0 43 30.5 73.5t73.5 30.5t74 -30.5t31 -73.5t-31 -74t-74 -31t-73.5 31t-30.5 74zM295 1606q0 43 30.5 73.5t73.5 30.5t74 -30.5t31 -73.5t-31 -74t-74 -31t-73.5 31t-30.5 74z" />
    <glyph glyph-name="afii10057" unicode="&#x408;" horiz-adv-x="626" 
d="M299 1366h152v-1104q0 -129 -26 -214t-108 -140q-76 -49 -167 -49q-129 0 -244 100l84 119q84 -76 157.5 -76t110.5 51q41 51 41 209v1104z" />
    <glyph glyph-name="afii10058" unicode="&#x409;" horiz-adv-x="1888" 
d="M315 1366h832v-567h184q471 0 471 -385q0 -193 -119.5 -303.5t-322.5 -110.5h-365v1223h-528v-734q0 -96 -2 -144t-32 -135t-89 -140q-92 -82 -233 -82q-33 0 -82 12v143q41 -12 75 -12q80 0 134 53q37 37 55 105.5t20 116t2 145.5v815zM1147 655v-512h176q174 0 252 76
q72 68 72 195q0 147 -111 207q-63 35 -229 34h-160z" />
    <glyph glyph-name="afii10059" unicode="&#x40a;" horiz-adv-x="1921" 
d="M328 1366v-567h700v567h152v-567h184q471 0 471 -385q0 -193 -120 -303.5t-322 -110.5h-365v655h-700v-655h-152v1366h152zM1180 655v-512h176q174 0 252 76q72 68 71 195q0 147 -110 207q-63 35 -230 34h-159z" />
    <glyph glyph-name="afii10060" unicode="&#x40b;" horiz-adv-x="1388" 
d="M922 1223h-414v-402q190 14 283 15q244 0 337 -74q125 -96 125 -318v-444h-151v424q0 166 -82 225q-57 43 -238 43q-121 0 -274 -14v-678h-152v1223h-327v143h893v-143z" />
    <glyph glyph-name="afii10061" unicode="&#x40c;" 
d="M328 1366v-586l581 586h205l-639 -637l660 -729h-209l-559 627l-39 -39v-588h-152v1366h152zM750 1806l143 -92l-313 -239l-88 65z" />
    <glyph glyph-name="afii10062" unicode="&#x40e;" 
d="M16 1366h185l426 -805l356 805h164l-617 -1366h-163l174 381zM276 1675l144 47q12 -39 37.5 -64.5t57.5 -34.5t48.5 -12t30.5 -3t30.5 3t48.5 12t57.5 34.5t37.5 64.5l143 -47q-8 -23 -23.5 -47t-50 -63t-98 -63.5t-145.5 -24.5t-145.5 24.5t-98.5 63.5t-50.5 63
t-23.5 47z" />
    <glyph glyph-name="afii10145" unicode="&#x40f;" horiz-adv-x="1347" 
d="M176 0v1366h152v-1223h692v1223h151v-1366h-426v-328h-143v328h-426z" />
    <glyph glyph-name="afii10017" unicode="&#x410;" horiz-adv-x="1273" 
d="M1090 0l-160 385h-582l-164 -385h-168l629 1432l612 -1432h-167zM408 528h462l-229 547z" />
    <glyph glyph-name="afii10018" unicode="&#x411;" horiz-adv-x="1085" 
d="M176 0v1366h678v-143h-526v-424h184q471 0 471 -385q0 -193 -120 -303.5t-322 -110.5h-365zM328 655v-512h176q174 0 252 76q72 68 71 195q0 147 -110 207q-63 35 -230 34h-159z" />
    <glyph glyph-name="afii10019" unicode="&#x412;" horiz-adv-x="1085" 
d="M176 1366h246q205 0 313 -86q123 -94 123 -283q0 -176 -135 -268q131 -33 195.5 -132t64.5 -212q0 -92 -40 -170t-99 -125q-115 -90 -328 -90h-340v1366zM328 1223v-457h114q31 0 59.5 3t68.5 16.5t70 36t50.5 67.5t20.5 104q0 63 -24.5 109.5t-55.5 69t-74 35
t-65.5 14.5t-45.5 2h-118zM328 631v-488h174q166 0 239 58q90 66 90 188q0 137 -116 201q-74 41 -232 41h-155z" />
    <glyph glyph-name="afii10020" unicode="&#x413;" horiz-adv-x="827" 
d="M176 0v1366h623v-143h-471v-1223h-152z" />
    <glyph glyph-name="afii10021" unicode="&#x414;" horiz-adv-x="1310" 
d="M295 1366h831v-1223h156v-430h-143v287h-967v-287h-143v430q70 -2 127 50.5t90 134.5q49 125 49 358v680zM446 1223v-537q0 -252 -49 -381q-35 -92 -104 -162h682v1080h-529z" />
    <glyph glyph-name="afii10022" unicode="&#x415;" horiz-adv-x="987" 
d="M885 1366v-143h-557v-406h540v-143h-540v-531h557v-143h-709v1366h709z" />
    <glyph glyph-name="afii10024" unicode="&#x416;" horiz-adv-x="1658" 
d="M754 1366h151v-586l520 586h189l-574 -637l590 -729h-192l-500 625l-33 -37v-588h-151v588l-33 37l-500 -625h-192l589 729l-573 637h188l521 -586v586z" />
    <glyph glyph-name="afii10025" unicode="&#x417;" horiz-adv-x="1179" 
d="M322 1098l-117 92q133 199 391 199q184 0 289 -97q106 -96 106 -252q0 -100 -52 -174.5t-136 -113.5q133 -31 203.5 -127.5t70.5 -225.5q0 -213 -170 -333q-131 -90 -311 -91q-186 0 -309 94.5t-185 233.5l148 66q41 -115 135 -182.5t217 -67.5q125 0 209 57
q111 78 111 219q0 268 -365 269h-123v143h123q135 0 207 65.5t72 165.5q0 88 -56 144q-61 63 -184 63q-172 0 -274 -147z" />
    <glyph glyph-name="afii10026" unicode="&#x418;" horiz-adv-x="1454" 
d="M1126 0v1042l-950 -1103v1427h152v-1047l950 1104v-1423h-152z" />
    <glyph glyph-name="afii10027" unicode="&#x419;" horiz-adv-x="1454" 
d="M1126 0v1042l-950 -1103v1427h152v-1047l950 1104v-1423h-152zM410 1675l143 47q12 -39 37.5 -64.5t57.5 -34.5t48.5 -12t30.5 -3t30.5 3t48.5 12t57.5 34.5t37.5 64.5l143 -47q-8 -23 -23 -47t-50 -63t-98.5 -63.5t-145.5 -24.5t-145.5 24.5t-98 63.5t-50 63t-23.5 47z
" />
    <glyph glyph-name="afii10028" unicode="&#x41a;" 
d="M328 1366v-586l581 586h205l-639 -637l660 -729h-209l-559 627l-39 -39v-588h-152v1366h152z" />
    <glyph glyph-name="afii10029" unicode="&#x41b;" horiz-adv-x="1323" 
d="M315 1366h832v-1366h-152v1223h-528v-734q0 -96 -2 -144t-32 -135t-89 -140q-92 -82 -233 -82q-33 0 -82 12v143q41 -12 75 -12q80 0 134 53q37 37 55 105.5t20 116t2 145.5v815z" />
    <glyph glyph-name="afii10030" unicode="&#x41c;" horiz-adv-x="1767" 
d="M285 0h-156l227 1442l525 -1153l534 1155l213 -1444h-155l-130 950l-464 -1007l-459 1007z" />
    <glyph glyph-name="afii10031" unicode="&#x41d;" horiz-adv-x="1355" 
d="M328 1366v-555h700v555h152v-1366h-152v668h-700v-668h-152v1366h152z" />
    <glyph glyph-name="afii10032" unicode="&#x41e;" horiz-adv-x="1626" 
d="M813 -25q-299 0 -505 203t-206 504q0 303 207 505t504 202t504 -202t207 -505q0 -301 -206 -504t-505 -203zM813 1245q-231 0 -393 -163.5t-162 -399.5t162 -399.5t393 -163.5t393 163.5t162 399.5t-162 399.5t-393 163.5z" />
    <glyph glyph-name="afii10033" unicode="&#x41f;" horiz-adv-x="1355" 
d="M176 1366h1004v-1366h-152v1223h-700v-1223h-152v1366z" />
    <glyph glyph-name="afii10034" unicode="&#x420;" horiz-adv-x="933" 
d="M176 1366h248q233 0 344 -96q125 -106 125 -293q0 -160 -107.5 -271.5t-324.5 -111.5h-133v-594h-152v1366zM328 1223v-486h125q135 0 211.5 65.5t76.5 182.5q0 238 -301 238h-112z" />
    <glyph glyph-name="afii10035" unicode="&#x421;" horiz-adv-x="1323" 
d="M1221 1253v-188q-82 82 -179 127q-117 53 -235 53q-236 0 -392.5 -165t-156.5 -404q0 -258 171 -407.5t380 -149.5q131 0 254 63q86 43 158 115v-188q-186 -133 -412 -134q-303 0 -505 203t-202 500q0 305 204 508t511 203q226 -1 404 -136z" />
    <glyph glyph-name="afii10036" unicode="&#x422;" horiz-adv-x="872" 
d="M844 1223h-332v-1223h-152v1223h-331v143h815v-143z" />
    <glyph glyph-name="afii10037" unicode="&#x423;" 
d="M16 1366h185l426 -805l356 805h164l-617 -1366h-163l174 381z" />
    <glyph glyph-name="afii10038" unicode="&#x424;" horiz-adv-x="1683" 
d="M766 0v193h-37q-145 0 -259 34.5t-181.5 88t-111.5 127t-59.5 142t-15.5 140.5t15.5 140.5t59.5 142t111.5 127t181.5 88t259 34.5h37v164h152v-164h36q145 0 259 -34.5t181.5 -88t111.5 -127t59.5 -142t15.5 -140.5t-15.5 -140.5t-59.5 -142t-111.5 -127t-181 -88
t-259.5 -34.5h-36v-193h-152zM766 336v778h-41q-133 0 -229.5 -35t-145.5 -95t-70.5 -123.5t-21.5 -135.5t21.5 -135.5t70.5 -123.5t145.5 -95t229.5 -35h41zM918 1114v-778h40q133 0 229.5 35t145.5 95t70.5 123.5t21.5 135.5t-21.5 135.5t-70.5 123.5t-145 95t-230 35h-40
z" />
    <glyph glyph-name="afii10039" unicode="&#x425;" horiz-adv-x="1032" 
d="M29 0l403 707l-366 659h172l282 -514l291 514h172l-375 -659l396 -707h-173l-313 561l-317 -561h-172z" />
    <glyph glyph-name="afii10040" unicode="&#x426;" horiz-adv-x="1355" 
d="M176 0v1366h152v-1223h692v1223h151v-1223h156v-430h-143v287h-1008z" />
    <glyph glyph-name="afii10041" unicode="&#x427;" horiz-adv-x="1208" 
d="M881 0v586q-190 -14 -283 -15q-244 0 -338 74q-125 96 -125 318v403h152v-383q0 -166 82 -225q57 -43 237 -43q121 0 275 14v637h151v-1366h-151z" />
    <glyph glyph-name="afii10042" unicode="&#x428;" horiz-adv-x="1888" 
d="M176 0v1366h152v-1223h540v1223h152v-1223h541v1223h151v-1366h-1536z" />
    <glyph glyph-name="afii10043" unicode="&#x429;" horiz-adv-x="1896" 
d="M176 0v1366h152v-1223h540v1223h152v-1223h541v1223h151v-1223h156v-430h-144v287h-1548z" />
    <glyph glyph-name="afii10044" unicode="&#x42a;" horiz-adv-x="1249" 
d="M356 0v1223h-327v143h479v-567h184q471 0 471 -385q0 -193 -119.5 -303.5t-322.5 -110.5h-365zM508 655v-512h176q174 0 252 76q72 68 72 195q0 147 -111 207q-63 35 -229 34h-160z" />
    <glyph glyph-name="afii10045" unicode="&#x42b;" horiz-adv-x="1454" 
d="M176 0v1366h152v-567h184q471 0 471 -385q0 -193 -120 -303.5t-322 -110.5h-365zM328 655v-512h176q174 0 252 76q72 68 71 195q0 147 -110 207q-63 35 -230 34h-159zM1126 1366h152v-1366h-152v1366z" />
    <glyph glyph-name="afii10046" unicode="&#x42c;" horiz-adv-x="1069" 
d="M176 0v1366h152v-567h184q471 0 471 -385q0 -193 -120 -303.5t-322 -110.5h-365zM328 655v-512h176q174 0 252 76q72 68 71 195q0 147 -110 207q-63 35 -230 34h-159z" />
    <glyph glyph-name="afii10047" unicode="&#x42d;" horiz-adv-x="1320" 
d="M102 1065v188q197 135 445 136q305 0 488.5 -200t183.5 -511q0 -305 -180.5 -504t-483.5 -199q-246 0 -453 134v188q61 -63 158 -111q141 -68 295 -67q207 0 358.5 145.5t149.5 370.5h-797v143h791q-16 199 -154.5 333t-345.5 134q-145 0 -276 -57q-105 -49 -179 -123z
" />
    <glyph glyph-name="afii10048" unicode="&#x42e;" horiz-adv-x="2027" 
d="M328 797h209q37 256 228 424t462 168q303 0 500.5 -199t197.5 -508q0 -305 -198.5 -506t-499.5 -201q-297 0 -491.5 199t-205.5 479h-202v-653h-152v1366h152v-569zM1226.5 1245q-227.5 0 -384 -161.5t-156.5 -401.5t156.5 -401.5t384 -161.5t385 161.5t157.5 401.5
t-157.5 401.5t-385 161.5z" />
    <glyph glyph-name="afii10049" unicode="&#x42f;" horiz-adv-x="1044" 
d="M61 0l402 606q-139 14 -230 86q-119 96 -118 279q0 168 94 272q111 123 340 123h319v-1366h-151v598h-82l-389 -598h-185zM717 1223h-148q-164 0 -233 -72q-66 -70 -66 -176q0 -121 78 -184q74 -57 209 -58h160v490z" />
    <glyph glyph-name="afii10065" unicode="&#x430;" horiz-adv-x="1077" 
d="M791 729v121h147v-850h-147v119q-111 -143 -291 -144q-172 0 -293 119t-121 332q0 209 120 326.5t294 117.5q185 0 291 -141zM516 739q-117 0 -197.5 -83t-80.5 -230q0 -141 74.5 -230.5t203.5 -89.5t206 92.5t77 225.5q0 152 -86 233.5t-197 81.5z" />
    <glyph glyph-name="afii10066" unicode="&#x431;" horiz-adv-x="1073" 
d="M795 1434h163q-23 -76 -77 -128.5t-98 -70.5t-103 -33q-10 -2 -49 -11t-60 -15l-53 -17q-33 -10 -59.5 -24.5t-48.5 -30.5q-78 -59 -126 -164.5t-53 -224.5h5q92 156 309 155q190 0 316 -129t126 -319q0 -193 -129 -320t-336 -127q-178 0 -293 107q-143 131 -143 438
q0 535 242 701q18 12 38.5 23t44 20.5t40 16.5t46 14.5t41 10.5t45 10t42.5 9q82 18 119 44t51 65zM537 739q-125 0 -212 -85t-87 -232.5t88 -231.5t210.5 -84t211 84t88.5 232q0 150 -87 233.5t-212 83.5z" />
    <glyph glyph-name="afii10067" unicode="&#x432;" horiz-adv-x="880" 
d="M139 850h322q117 0 178 -49q74 -59 74 -160q0 -111 -92 -170q63 -16 106 -57q68 -66 68 -164q0 -123 -88 -193q-76 -57 -201 -57h-367v850zM287 504h155q59 0 95 24q41 31 41 88q0 51 -41 82q-31 20 -119 21h-131v-215zM287 131h182q94 0 133 29q49 37 49 94q0 61 -43 96
q-39 31 -133 31h-188v-250z" />
    <glyph glyph-name="afii10068" unicode="&#x433;" horiz-adv-x="651" 
d="M139 0v850h504v-135h-356v-715h-148z" />
    <glyph glyph-name="afii10069" unicode="&#x434;" horiz-adv-x="942" 
d="M201 850h598v-715h127v-360h-135v225h-648v-225h-135v360q106 2 158 111q35 72 35 225v379zM651 135v580h-303v-320q0 -170 -102 -260h405z" />
    <glyph glyph-name="afii10070" unicode="&#x435;" horiz-adv-x="985" 
d="M770 285l123 -68q-43 -82 -105 -137q-117 -104 -282 -105q-172 0 -296 112t-124 333q0 195 111.5 322.5t300.5 127.5q213 0 321 -155q86 -123 80 -320h-661q2 -129 79.5 -209t190.5 -80q100 0 174 62q57 49 88 117zM248 518h500q-18 100 -87 160.5t-163 60.5
q-92 0 -163 -62.5t-87 -158.5z" />
    <glyph glyph-name="afii10072" unicode="&#x436;" horiz-adv-x="1220" 
d="M537 850h147v-348l320 348h172l-369 -393l405 -457h-184l-315 358l-29 -28v-330h-147v330l-29 28l-315 -358h-185l406 457l-369 393h172l320 -348v348z" />
    <glyph glyph-name="afii10073" unicode="&#x437;" horiz-adv-x="864" 
d="M250 633l-103 84q49 72 109 106q80 47 186 47q129 0 201 -59q74 -63 74 -162q0 -119 -96 -178q61 -14 98 -55q59 -63 59 -156q0 -137 -110 -219q-90 -66 -242 -66q-135 0 -227 72q-70 51 -113 146l127 53q23 -57 76 -96q57 -43 139 -44q96 0 143 33q59 39 60 119
q0 66 -51 98q-43 29 -140 29h-86v135h72q78 0 111 23q45 29 45 78q0 57 -37 88q-35 31 -109 30q-63 0 -117 -32q-44 -29 -69 -74z" />
    <glyph glyph-name="afii10074" unicode="&#x438;" horiz-adv-x="1007" 
d="M139 850h148v-561l581 626v-915h-147v567l-582 -626v909z" />
    <glyph glyph-name="afii10075" unicode="&#x439;" horiz-adv-x="1007" 
d="M139 850h148v-561l581 626v-915h-147v567l-582 -626v909zM213 1217l123 47q37 -123 174 -123t174 123l123 -47q-33 -92 -112 -145.5t-185.5 -53.5t-185 53.5t-111.5 145.5z" />
    <glyph glyph-name="afii10076" unicode="&#x43a;" horiz-adv-x="864" 
d="M139 850h148v-348l344 348h180l-369 -379l414 -471h-192l-332 373l-45 -43v-330h-148v850z" />
    <glyph glyph-name="afii10077" unicode="&#x43b;" horiz-adv-x="921" 
d="M782 850v-850h-147v715h-303v-383q0 -166 -66 -246q-74 -90 -205 -90q-16 0 -45 4v135q20 -4 33 -4q72 0 107 55q29 45 28 146v518h598z" />
    <glyph glyph-name="afii10078" unicode="&#x43c;" horiz-adv-x="1187" 
d="M41 0l205 915l352 -692l344 692l205 -915h-152l-112 526l-289 -585l-293 585l-108 -526h-152z" />
    <glyph glyph-name="afii10079" unicode="&#x43d;" horiz-adv-x="974" 
d="M139 0v850h148v-348h401v348h148v-850h-148v367h-401v-367h-148z" />
    <glyph glyph-name="afii10080" unicode="&#x43e;" horiz-adv-x="1073" 
d="M536.5 -25q-194.5 0 -322.5 127t-128 320q0 195 128 321.5t322.5 126.5t322.5 -127t128 -321q0 -193 -128 -320t-322.5 -127zM537 739q-125 0 -212 -85t-87 -232.5t88 -231.5t210.5 -84t211 84t88.5 232q0 150 -87 233.5t-212 83.5z" />
    <glyph glyph-name="afii10081" unicode="&#x43f;" horiz-adv-x="962" 
d="M139 850h684v-850h-147v715h-389v-715h-148v850z" />
    <glyph glyph-name="afii10082" unicode="&#x440;" horiz-adv-x="1077" 
d="M287 119v-598h-148v1329h148v-119q113 139 291 139q190 0 301.5 -134t111.5 -316q0 -184 -110.5 -314.5t-296.5 -130t-297 143.5zM563 106q125 0 201 91.5t76 222.5q0 147 -84 233t-194.5 86t-196.5 -86t-86 -231q0 -133 78.5 -224.5t205.5 -91.5z" />
    <glyph glyph-name="afii10083" unicode="&#x441;" horiz-adv-x="897" 
d="M805 788v-176q-100 127 -266 127q-125 0 -213 -85t-88 -232.5t88 -231.5t211 -84q164 0 274 134v-177q-121 -88 -270 -88q-199 0 -327 126t-128 319q0 195 129 322.5t326 127.5q147 0 264 -82z" />
    <glyph glyph-name="afii10084" unicode="&#x442;" horiz-adv-x="712" 
d="M696 715h-266v-715h-147v715h-267v135h680v-135z" />
    <glyph glyph-name="afii10085" unicode="&#x443;" horiz-adv-x="942" 
d="M133 -479l275 559l-392 770h168l301 -608l277 608h164l-629 -1329h-164z" />
    <glyph glyph-name="afii10086" unicode="&#x444;" horiz-adv-x="1331" 
d="M592 -479v465q-223 0 -359 110q-147 121 -147 330t145 328q131 111 361 110v502h147v-502q229 0 361 -110q145 -119 145 -328t-147 -330q-135 -111 -359 -110v-465h-147zM592 117v616q-133 6 -227 -53q-127 -80 -127 -254q0 -164 118 -248q97 -67 236 -61zM739 733v-616
q139 -6 236 61q119 84 119 248q0 174 -127 254q-95 59 -228 53z" />
    <glyph glyph-name="afii10087" unicode="&#x445;" horiz-adv-x="929" 
d="M16 0l363 455l-309 395h180l219 -289l223 289h180l-311 -397l352 -453h-180l-268 346l-268 -346h-181z" />
    <glyph glyph-name="afii10088" unicode="&#x446;" horiz-adv-x="970" 
d="M139 0v850h148v-715h381v715h147v-715h139v-360h-135v225h-680z" />
    <glyph glyph-name="afii10089" unicode="&#x447;" horiz-adv-x="880" 
d="M594 0v334q-119 -18 -201 -19q-139 0 -207 62q-72 63 -71 209v264h147v-244q0 -70 19 -100q29 -55 129 -55q90 0 184 18v381h147v-850h-147z" />
    <glyph glyph-name="afii10090" unicode="&#x448;" horiz-adv-x="1376" 
d="M139 0v850h148v-715h327v715h148v-715h328v715h147v-850h-1098z" />
    <glyph glyph-name="afii10091" unicode="&#x449;" horiz-adv-x="1392" 
d="M139 0v850h148v-715h327v715h148v-715h328v715h147v-715h139v-360h-135v225h-1102z" />
    <glyph glyph-name="afii10092" unicode="&#x44a;" horiz-adv-x="880" 
d="M201 0v715h-185v135h332v-326h152q176 0 258 -84q66 -66 65 -178q0 -119 -75.5 -190.5t-249.5 -71.5h-297zM348 131h137q92 0 131 23q55 37 56 108q0 74 -54 107q-37 25 -131 24h-139v-262z" />
    <glyph glyph-name="afii10093" unicode="&#x44b;" horiz-adv-x="1150" 
d="M139 0v850h148v-326h151q176 0 258 -84q66 -66 66 -178q0 -119 -76 -190.5t-250 -71.5h-297zM287 131h137q92 0 131 23q55 37 55 108q0 74 -53 107q-37 25 -131 24h-139v-262zM864 0v850h148v-850h-148z" />
    <glyph glyph-name="afii10094" unicode="&#x44c;" horiz-adv-x="819" 
d="M139 0v850h148v-326h151q176 0 258 -84q66 -66 66 -178q0 -119 -76 -190.5t-250 -71.5h-297zM287 131h137q92 0 131 23q55 37 55 108q0 74 -53 107q-37 25 -131 24h-139v-262z" />
    <glyph glyph-name="afii10095" unicode="&#x44d;" horiz-adv-x="866" 
d="M86 684v143q106 43 231 43q215 0 339 -124.5t124 -325.5q0 -195 -126 -320t-326 -125q-127 0 -242 48v143q113 -59 240 -60q119 0 204.5 73t98.5 190h-449v131h449q-25 113 -109 176t-196 63q-119 0 -238 -55z" />
    <glyph glyph-name="afii10096" unicode="&#x44e;" horiz-adv-x="1413" 
d="M287 502h153q20 143 115 241q121 127 322 127q197 0 323.5 -127t126.5 -321q0 -193 -128 -320t-322 -127q-223 0 -351 160q-82 102 -94 232h-145v-367h-148v850h148v-348zM877 739q-123 0 -208 -85t-85 -232q0 -150 86 -233t207 -83q123 0 211 84t88 231.5t-87 232.5
t-212 85z" />
    <glyph glyph-name="afii10097" unicode="&#x44f;" horiz-adv-x="835" 
d="M41 0l264 350q-12 0 -33.5 4t-62.5 20.5t-68 43.5q-68 63 -67 170q0 121 76 190q76 72 249 72h297v-850h-147v342h-90l-242 -342h-176zM549 465v254h-137q-96 0 -133 -23q-53 -35 -53.5 -104.5t53.5 -102.5q39 -25 131 -24h139z" />
    <glyph glyph-name="afii10071" unicode="&#x451;" horiz-adv-x="987" 
d="M772 285l123 -68q-43 -82 -104 -137q-115 -104 -283 -105q-172 0 -297 113t-125 332q0 195 112.5 322.5t301.5 127.5q213 0 321 -155q86 -123 80 -320h-663q2 -129 79.5 -209t192.5 -80q104 0 174 62q57 49 88 117zM250 518h500q-18 100 -87 160.5t-163 60.5
q-92 0 -163 -62.5t-87 -158.5zM225 1126q0 41 31 72t72 31t71.5 -31t30.5 -72t-30.5 -71.5t-71.5 -30.5t-72 30.5t-31 71.5zM582 1126q0 41 30.5 72t71.5 31t71.5 -31t30.5 -72t-30.5 -71.5t-71.5 -30.5t-71.5 30.5t-30.5 71.5z" />
    <glyph glyph-name="afii10099" unicode="&#x452;" horiz-adv-x="962" 
d="M139 0v1135h-139v122h139v236h148v-236h409v-122h-409v-383q90 119 243 118q164 0 244 -116q49 -72 49 -228v-710q0 -170 -82 -240q-66 -55 -170 -55q-55 0 -104 18v144q45 -18 96 -19q68 0 94 45q18 31 19 123v690q0 104 -39 156q-47 61 -139 61q-94 0 -150 -65
q-61 -72 -61 -230v-444h-148z" />
    <glyph glyph-name="afii10100" unicode="&#x453;" horiz-adv-x="651" 
d="M139 0v850h504v-135h-356v-715h-148zM516 1364l152 -70l-275 -276l-92 49z" />
    <glyph glyph-name="afii10101" unicode="&#x454;" horiz-adv-x="897" 
d="M805 788v-176q-106 127 -266 127q-104 0 -189.5 -64.5t-105.5 -174.5h444v-131h-446q14 -117 98 -190t197 -73q164 0 274 134v-177q-121 -88 -270 -88q-199 0 -327 126t-128 319q0 195 129 322.5t326 127.5q147 0 264 -82z" />
    <glyph glyph-name="afii10102" unicode="&#x455;" horiz-adv-x="720" 
d="M610 717l-121 -64q-35 86 -118 86q-43 0 -73 -24.5t-30 -71.5q0 -43 28 -64.5t110 -56.5q162 -68 212 -131q45 -55 46 -137q0 -129 -83 -204t-210 -75q-25 0 -53.5 5.5t-79 22.5t-95.5 66.5t-69 123.5l127 53q51 -139 172 -140q68 0 103.5 41t35.5 95q0 29 -9 50
t-30.5 37.5t-41 27t-56.5 26.5q-164 72 -207 125q-39 49 -39 125q0 111 68.5 174t179.5 63q161 1 233 -153z" />
    <glyph glyph-name="afii10103" unicode="&#x456;" horiz-adv-x="425" 
d="M139 850h148v-850h-148v850zM109 1171q0 43 30.5 74t73.5 31t73.5 -31t30.5 -74t-30.5 -73.5t-73.5 -30.5t-73.5 30.5t-30.5 73.5z" />
    <glyph glyph-name="afii10104" unicode="&#x457;" horiz-adv-x="425" 
d="M139 850h148v-850h-148v850zM-25 1126q0 41 31 72t72 31t71.5 -31t30.5 -72t-30.5 -71.5t-71.5 -30.5t-72 30.5t-31 71.5zM246 1126q0 41 30.5 72t71.5 31t72 -31t31 -72t-31 -71.5t-72 -30.5t-71.5 30.5t-30.5 71.5z" />
    <glyph glyph-name="afii10105" unicode="&#x458;" horiz-adv-x="425" 
d="M139 850h148v-1329h-148v1329zM109 1171q0 43 30.5 74t73.5 31t73.5 -31t30.5 -74t-30.5 -73.5t-73.5 -30.5t-73.5 30.5t-30.5 73.5z" />
    <glyph glyph-name="afii10106" unicode="&#x459;" horiz-adv-x="1314" 
d="M782 850v-326h152q176 0 258 -84q66 -66 65 -178q0 -119 -75.5 -190.5t-249.5 -71.5h-297v715h-303v-383q0 -166 -66 -246q-74 -90 -205 -90q-16 0 -45 4v135q20 -4 33 -4q72 0 107 55q29 45 28 146v518h598zM782 131h138q92 0 131 23q55 37 55 108q0 74 -53 107
q-37 25 -131 24h-140v-262z" />
    <glyph glyph-name="afii10107" unicode="&#x45a;" horiz-adv-x="1368" 
d="M139 0v850h148v-322h401v322h148v-326h151q176 0 258 -84q66 -66 66 -178q0 -119 -76 -190.5t-250 -71.5h-297v393h-401v-393h-148zM836 131h137q92 0 131 23q55 37 55 108q0 74 -53 107q-37 25 -131 24h-139v-262z" />
    <glyph glyph-name="afii10108" unicode="&#x45b;" horiz-adv-x="962" 
d="M139 0v1135h-139v122h139v236h148v-236h409v-122h-409v-383q90 119 243 118q164 0 244 -116q49 -72 49 -228v-526h-147v522q0 104 -39 156q-47 61 -139 61q-94 0 -150 -65q-61 -72 -61 -230v-444h-148z" />
    <glyph glyph-name="afii10109" unicode="&#x45c;" horiz-adv-x="864" 
d="M139 850h148v-348l344 348h180l-369 -379l414 -471h-192l-332 373l-45 -43v-330h-148v850zM559 1364l152 -70l-275 -276l-92 49z" />
    <glyph glyph-name="afii10110" unicode="&#x45e;" horiz-adv-x="942" 
d="M133 -479l275 559l-392 770h168l301 -608l277 608h164l-629 -1329h-164zM195 1217l122 47q37 -123 174.5 -123t174.5 123l122 -47q-33 -92 -111.5 -145.5t-185 -53.5t-185 53.5t-111.5 145.5z" />
    <glyph glyph-name="afii10193" unicode="&#x45f;" horiz-adv-x="954" 
d="M139 0v850h148v-715h381v715h147v-850h-270v-287h-135v287h-271z" />
    <glyph glyph-name="afii10050" unicode="&#x490;" horiz-adv-x="827" 
d="M176 0v1366h479v287h144v-430h-471v-1223h-152z" />
    <glyph glyph-name="afii10098" unicode="&#x491;" horiz-adv-x="671" 
d="M139 0v850h369v225h135v-360h-356v-715h-148z" />
    <glyph glyph-name="uni2000" unicode="&#x2000;" horiz-adv-x="903" 
 />
    <glyph glyph-name="uni2001" unicode="&#x2001;" horiz-adv-x="1806" 
 />
    <glyph glyph-name="uni2002" unicode="&#x2002;" horiz-adv-x="903" 
 />
    <glyph glyph-name="uni2003" unicode="&#x2003;" horiz-adv-x="1806" 
 />
    <glyph glyph-name="uni2004" unicode="&#x2004;" horiz-adv-x="602" 
 />
    <glyph glyph-name="uni2005" unicode="&#x2005;" horiz-adv-x="450" 
 />
    <glyph glyph-name="uni2006" unicode="&#x2006;" horiz-adv-x="301" 
 />
    <glyph glyph-name="uni2007" unicode="&#x2007;" horiz-adv-x="301" 
 />
    <glyph glyph-name="uni2008" unicode="&#x2008;" horiz-adv-x="225" 
 />
    <glyph glyph-name="uni2009" unicode="&#x2009;" horiz-adv-x="360" 
 />
    <glyph glyph-name="uni200A" unicode="&#x200a;" horiz-adv-x="100" 
 />
    <glyph glyph-name="uni2010" unicode="&#x2010;" horiz-adv-x="614" 
d="M82 360v152h450v-152h-450z" />
    <glyph glyph-name="uni2011" unicode="&#x2011;" horiz-adv-x="614" 
d="M82 360v152h450v-152h-450z" />
    <glyph glyph-name="figuredash" unicode="&#x2012;" horiz-adv-x="614" 
d="M82 360v152h450v-152h-450z" />
    <glyph glyph-name="endash" unicode="&#x2013;" horiz-adv-x="1105" 
d="M102 371v131h902v-131h-902z" />
    <glyph glyph-name="emdash" unicode="&#x2014;" horiz-adv-x="1556" 
d="M102 371v131h1352v-131h-1352z" />
    <glyph glyph-name="quoteleft" unicode="&#x2018;" horiz-adv-x="540" 
d="M422 1395l-170 -473l-133 49l207 463z" />
    <glyph glyph-name="quoteright" unicode="&#x2019;" horiz-adv-x="630" 
d="M119 961l166 473l137 -50l-207 -462z" />
    <glyph glyph-name="quotesinglbase" unicode="&#x201a;" horiz-adv-x="630" 
d="M119 -272l166 473l137 -49l-207 -463z" />
    <glyph glyph-name="quotedblleft" unicode="&#x201c;" horiz-adv-x="839" 
d="M422 1395l-170 -473l-133 49l207 463zM721 1395l-166 -473l-137 49l207 463z" />
    <glyph glyph-name="quotedblright" unicode="&#x201d;" horiz-adv-x="929" 
d="M119 961l166 473l137 -50l-207 -462zM418 961l170 473l133 -50l-207 -462z" />
    <glyph glyph-name="quotedblbase" unicode="&#x201e;" horiz-adv-x="929" 
d="M119 -272l166 473l137 -49l-207 -463zM418 -272l170 473l133 -49l-207 -463z" />
    <glyph glyph-name="dagger" unicode="&#x2020;" 
d="M508 1157v336h147v-336h303v-139h-303v-1378h-147v1378h-303v139h303z" />
    <glyph glyph-name="daggerdbl" unicode="&#x2021;" 
d="M508 1157v336h147v-336h303v-139h-303v-621h303v-139h-303v-618h-147v618h-303v139h303v621h-303v139h303z" />
    <glyph glyph-name="bullet" unicode="&#x2022;" horiz-adv-x="1368" 
d="M397 696.5q0 118.5 84 202.5t203 84t203 -84t84 -202.5t-84 -202.5t-203 -84t-203 84t-84 202.5z" />
    <glyph glyph-name="ellipsis" unicode="&#x2026;" horiz-adv-x="1527" 
d="M154 82q0 41 30.5 71.5t71.5 30.5t71.5 -30.5t30.5 -71.5t-30.5 -71.5t-71.5 -30.5t-71.5 30.5t-30.5 71.5zM662 82q0 41 30.5 71.5t71.5 30.5t71.5 -30.5t30.5 -71.5t-30.5 -71.5t-71.5 -30.5t-71.5 30.5t-30.5 71.5zM1169 82q0 41 31 71.5t72 30.5t71.5 -30.5
t30.5 -71.5t-30.5 -71.5t-71.5 -30.5t-72 30.5t-31 71.5z" />
    <glyph glyph-name="uni202F" unicode="&#x202f;" horiz-adv-x="360" 
 />
    <glyph glyph-name="perthousand" unicode="&#x2030;" horiz-adv-x="2170" 
d="M364.5 1378q124.5 0 211 -86t86.5 -211t-86.5 -211t-211 -86t-210.5 86t-86 211t86 211t210.5 86zM365 897q74 0 124 54.5t50 130t-50.5 130t-123.5 54.5q-72 0 -123.5 -54.5t-51.5 -130t51.5 -130t123.5 -54.5zM289 20l796 1373l80 -45l-796 -1375zM1089.5 580
q124.5 0 210.5 -86t86 -211t-86 -211t-210.5 -86t-210.5 86t-86 211t86 211t210.5 86zM1090 98q74 0 124 54.5t50 130t-50.5 130t-123.5 54.5q-72 0 -123.5 -54.5t-51.5 -130t51.5 -130t123.5 -54.5zM1806 580q125 0 211 -86t86 -211t-86 -211t-211 -86t-211 86t-86 211
t86 211t211 86zM1806 98q74 0 124 54.5t50 130t-50 130t-124 54.5q-72 0 -123 -54.5t-51 -130t51 -130t123 -54.5z" />
    <glyph glyph-name="guilsinglleft" unicode="&#x2039;" horiz-adv-x="577" 
d="M229 434l246 -299l-94 -74l-307 373l307 385l94 -76z" />
    <glyph glyph-name="guilsinglright" unicode="&#x203a;" horiz-adv-x="577" 
d="M348 446l-246 299l95 74l307 -373l-307 -385l-95 76z" />
    <glyph glyph-name="uni205F" unicode="&#x205f;" horiz-adv-x="450" 
 />
    <glyph glyph-name="Euro" unicode="&#x20ac;" 
d="M1071 1292v-149q-117 113 -321 112q-174 0 -273.5 -105.5t-122.5 -275.5h627l-43 -114h-600q0 -8 -1 -34t-1 -38q0 -16 1 -43t1 -35h543l-41 -114h-484q25 -184 126.5 -285.5t267.5 -101.5q195 0 321 112v-149q-43 -39 -133 -67t-205 -28q-453 0 -526 519h-152l43 114h97
q-4 37 -5 78q0 12 1.5 38t1.5 34h-138l43 114h107q35 236 164 375.5t364 139.5q221 -1 338 -97z" />
    <glyph glyph-name="afii61352" unicode="&#x2116;" horiz-adv-x="2088" 
d="M328 0h-152v1423l954 -1083v1026h152v-1427l-954 1083v-1022zM1730.5 1366q124.5 0 211 -86t86.5 -211t-86.5 -211t-211 -86t-210.5 86t-86 211t86 211t210.5 86zM1731 885q74 0 124 54t50 130t-50.5 130t-123.5 54q-72 0 -123.5 -54t-51.5 -130t51.5 -130t123.5 -54z
M1475 465v143h512v-143h-512z" />
    <glyph glyph-name="trademark" unicode="&#x2122;" horiz-adv-x="1478" 
d="M479 1272h-184v-684h-102v684h-185v94h471v-94zM647 588h-94l133 827l293 -645l301 645l125 -827h-94l-72 526l-260 -565l-256 565z" />
    <glyph glyph-name="uniE000" unicode="&#xe000;" horiz-adv-x="850" 
d="M0 850h850v-850h-850v850z" />
    <glyph glyph-name="hyphenminus" horiz-adv-x="614" 
d="M82 360v152h450v-152h-450z" />
    </font>
</defs>
</svg>
